<?xml version="1.0" standalone="no"?>
<!DOCTYPE svg PUBLIC "-//W3C//DTD SVG 20010904//EN"
 "http://www.w3.org/TR/2001/REC-SVG-20010904/DTD/svg10.dtd">
<svg version="1.0" xmlns="http://www.w3.org/2000/svg"
 width="2304.000000pt" height="2304.000000pt" viewBox="0 0 2304.000000 2304.000000"
 preserveAspectRatio="xMidYMid meet">
<metadata>
Created by potrace 1.11, written by Peter Selinger 2001-2013
</metadata>
<g transform="translate(0.000000,2304.000000) scale(0.100000,-0.100000)"
fill="#000000" stroke="none">
<path d="M0 11520 l0 -11520 11520 0 11520 0 0 11520 0 11520 -11520 0 -11520
0 0 -11520z m5280 7658 c1 -54 33 -169 66 -237 89 -181 300 -311 504 -311 204
0 415 130 504 311 33 68 65 183 66 237 l0 22 375 0 375 0 0 -22 c0 -13 7 -54
15 -93 46 -220 220 -394 440 -440 130 -27 248 -11 374 51 147 72 261 222 296
389 8 39 15 80 15 93 l0 22 375 0 375 0 0 -22 c1 -54 33 -169 66 -237 89 -181
300 -311 504 -311 204 0 415 130 504 311 33 68 65 183 66 237 l0 22 375 0 375
0 0 -22 c1 -54 33 -169 66 -237 89 -181 300 -311 504 -311 204 0 415 130 504
311 33 68 65 183 66 237 l0 22 375 0 375 0 0 -22 c1 -54 33 -169 66 -237 89
-181 300 -311 504 -311 204 0 415 130 504 311 33 68 65 183 66 237 l0 22 375
0 375 0 0 -22 c1 -54 33 -169 66 -237 89 -181 300 -311 504 -311 204 0 415
130 504 311 33 68 65 183 66 237 l0 22 375 0 375 0 0 -22 c1 -54 33 -169 66
-237 89 -181 300 -311 504 -311 204 0 415 130 504 311 34 69 65 183 66 238 0
23 1 23 73 17 356 -35 674 -185 927 -438 235 -235 377 -520 425 -853 22 -152
28 -139 -67 -153 -245 -35 -444 -235 -480 -481 -43 -294 153 -574 447 -636 39
-8 80 -15 93 -15 l22 0 0 -373 0 -373 -82 -12 c-245 -35 -444 -235 -480 -481
-43 -294 153 -574 447 -636 39 -8 80 -15 93 -15 l22 0 0 -373 0 -373 -82 -12
c-245 -35 -444 -235 -480 -481 -43 -294 153 -574 447 -636 39 -8 80 -15 93
-15 l22 0 0 -373 0 -373 -82 -12 c-245 -35 -444 -235 -480 -481 -43 -294 153
-574 447 -636 39 -8 80 -15 93 -15 l22 0 0 -373 0 -373 -82 -12 c-245 -35
-444 -235 -480 -481 -43 -294 153 -574 447 -636 39 -8 80 -15 93 -15 l22 0 0
-373 0 -373 -82 -12 c-245 -35 -444 -235 -480 -481 -43 -294 153 -574 447
-636 39 -8 80 -15 93 -15 l22 0 0 -373 0 -373 -82 -12 c-245 -35 -444 -235
-480 -481 -43 -294 153 -574 447 -636 39 -8 80 -15 93 -15 28 0 29 -20 2 -177
-28 -165 -71 -294 -145 -441 -209 -410 -591 -701 -1040 -791 -55 -11 -130 -23
-166 -26 l-66 -7 -7 62 c-36 320 -331 548 -648 502 -245 -35 -444 -235 -480
-481 l-12 -81 -373 0 -373 0 0 28 c0 50 -39 181 -72 245 -77 148 -246 264
-417 289 -308 45 -598 -172 -643 -481 l-12 -81 -373 0 -373 0 0 28 c0 50 -39
181 -72 245 -77 148 -246 264 -417 289 -308 45 -598 -172 -643 -481 l-12 -81
-373 0 -373 0 0 28 c0 50 -39 181 -72 245 -77 148 -246 264 -417 289 -308 45
-598 -172 -643 -481 l-12 -81 -373 0 -373 0 0 28 c0 50 -39 181 -72 245 -77
148 -246 264 -417 289 -308 45 -598 -172 -643 -481 l-12 -81 -373 0 -373 0 0
28 c0 50 -39 181 -72 245 -77 148 -246 264 -417 289 -308 45 -598 -172 -643
-481 l-12 -81 -373 0 -373 0 0 28 c0 50 -39 181 -72 245 -77 148 -246 264
-417 289 -308 45 -598 -172 -643 -481 l-12 -82 -61 6 c-207 21 -377 71 -553
160 -436 222 -735 636 -806 1118 -22 144 -21 157 7 157 53 1 168 33 236 66
183 90 310 299 311 510 0 70 -33 193 -72 267 -77 148 -246 264 -417 289 l-81
12 0 373 0 373 23 0 c53 1 168 33 236 66 183 90 310 299 311 510 0 70 -33 193
-72 267 -77 148 -246 264 -417 289 l-81 12 0 373 0 373 23 0 c53 1 168 33 236
66 183 90 310 299 311 510 0 70 -33 193 -72 267 -77 148 -246 264 -417 289
l-81 12 0 373 0 373 23 0 c53 1 168 33 236 66 183 90 310 299 311 510 0 70
-33 193 -72 267 -77 148 -246 264 -417 289 l-81 12 0 373 0 373 23 0 c53 1
168 33 236 66 183 90 310 299 311 510 0 70 -33 193 -72 267 -77 148 -246 264
-417 289 l-81 12 0 373 0 373 23 0 c53 1 168 33 236 66 183 90 310 299 311
510 0 70 -33 193 -72 267 -77 148 -246 264 -417 289 l-81 12 0 373 0 373 23 0
c53 1 168 33 236 66 183 90 310 299 311 510 0 70 -33 193 -72 267 -78 148
-246 264 -418 289 l-82 12 7 71 c51 529 374 993 850 1220 162 77 390 137 548
144 32 1 37 -2 37 -21z"/>
<path d="M5930 17564 c-221 -47 -408 -236 -455 -459 -22 -106 -22 -11094 0
-11200 23 -109 76 -207 159 -290 77 -77 144 -120 246 -157 l65 -23 5585 0
5585 0 70 23 c104 35 172 77 250 156 81 82 137 184 160 292 22 105 22 11094 0
11199 -47 225 -235 413 -460 460 -103 22 -11105 21 -11205 -1z m5240 -2844 l0
-260 -257 0 c-353 0 -419 -16 -516 -119 -50 -53 -83 -117 -114 -217 -16 -55
-17 -139 -20 -1113 l-4 -1053 23 6 c13 3 582 6 1266 6 l1242 0 0 928 c-1 930
-6 1126 -35 1237 -34 133 -101 227 -196 275 -79 41 -157 50 -431 50 l-258 0 0
260 0 260 1675 0 1675 0 0 -260 0 -260 -252 0 c-349 0 -417 -17 -517 -125 -48
-52 -84 -125 -109 -224 -16 -61 -17 -244 -17 -2601 0 -2406 1 -2538 18 -2600
39 -142 95 -224 186 -274 83 -45 174 -56 447 -56 l244 0 0 -260 0 -260 -1675
0 -1675 0 0 260 0 260 249 0 c346 0 430 18 525 114 82 81 122 200 136 401 5
72 9 613 10 1203 l0 1072 -1265 0 -1265 0 0 -1162 c0 -1098 1 -1168 19 -1254
32 -153 99 -262 197 -320 71 -42 170 -54 445 -54 l249 0 0 -260 0 -260 -1672
2 -1673 3 -3 258 -2 257 242 0 c277 0 348 8 434 50 109 53 175 152 211 321 17
80 18 208 18 2584 0 2304 -1 2506 -17 2572 -33 142 -101 244 -197 296 -86 47
-159 57 -438 57 l-253 0 0 260 0 260 1675 0 1675 0 0 -260z"/>
</g>
</svg>
